<?xml version="1.0" ?><svg data-name="Social Media Icons" id="Social_Media_Icons" viewBox="0 0 512 512" xmlns="http://www.w3.org/2000/svg"><defs><style>.cls-1{fill:#fff;}</style></defs><g id="Github"><path d="M512,256c0,117.67-79.41,216.81-187.56,246.75-2.57-1.9-4.71-5.5-4.71-12.15,0-16.47-.67-81.38-.67-81.38s-2.64-22.35-15.43-32.57c0,0,0,0,0,0,2.5,0,96.9-1.73,112.94-90.59,0,0,16.26-58.42-23.06-102.11,0,0,12.52-30.31-2.64-66.55,0,0-29-2-69.17,26.36,0,0-43.77-8.57-65.7-8.57s-65.7,8.57-65.7,8.57c-40.19-28.33-69.17-26.36-69.17-26.36-15.16,36.24-2.64,66.55-2.64,66.55C79.17,227.6,95.43,286,95.43,286c16,88.86,110.44,90.56,112.94,90.59,0,0,0,0,0,0-12.79,10.22-15.43,32.57-15.43,32.57s-35.57,24.39-68.52-10.75c0,0-17.57-43.93-57.1-32.51,0,0-3.51,8.36,14.06,15.38,0,0,19.32,16,24.15,36.12,0,0,21.19,49.1,87,32.84-.14,16.37-.27,33.05-.27,40.3,0,6.65-2.14,10.25-4.71,12.15C79.41,472.81,0,373.67,0,256,0,114.62,114.62,0,256,0S512,114.62,512,256Z"/><path class="cls-1" d="M416.57,286c-16,88.86-110.44,90.56-112.94,90.59,0,0,0,0,0,0,12.79,10.22,15.43,32.57,15.43,32.57s.67,64.91.67,81.38c0,6.65,2.14,10.25,4.71,12.15a257.82,257.82,0,0,1-136.88,0c2.57-1.9,4.71-5.5,4.71-12.15,0-7.25.13-23.93.27-40.3-65.82,16.26-87-32.84-87-32.84-4.83-20.09-24.15-36.12-24.15-36.12C63.81,374.32,67.32,366,67.32,366c39.53-11.42,57.1,32.51,57.1,32.51,33,35.14,68.52,10.75,68.52,10.75s2.64-22.35,15.43-32.57c0,0,0,0,0,0-2.5,0-96.9-1.73-112.94-90.59,0,0-16.26-58.42,23.06-102.11,0,0-12.52-30.31,2.64-66.55,0,0,29-2,69.17,26.36,0,0,43.77-8.57,65.7-8.57s65.7,8.57,65.7,8.57c40.19-28.33,69.17-26.36,69.17-26.36,15.16,36.24,2.64,66.55,2.64,66.55C432.83,227.6,416.57,286,416.57,286Z"/></g></svg>